<?xml version="1.0" encoding="iso-8859-1"?>
<!-- Generator: Adobe Illustrator 18.0.0, SVG Export Plug-In . SVG Version: 6.00 Build 0)  -->
<!DOCTYPE svg PUBLIC "-//W3C//DTD SVG 1.1//EN" "http://www.w3.org/Graphics/SVG/1.1/DTD/svg11.dtd">
<svg version="1.1" id="Capa_1" xmlns="http://www.w3.org/2000/svg" xmlns:xlink="http://www.w3.org/1999/xlink" x="0px" y="0px"
	 viewBox="0 0 297.001 297.001" style="enable-background:new 0 0 297.001 297.001;" xml:space="preserve">
<g>
	<path d="M69.393,213.835c-1.768-1.768-4.344-2.456-6.754-1.81l-18.814,5.041c-2.413,0.647-4.298,2.531-4.945,4.945l-5.041,18.815
		c-0.647,2.412,0.044,4.988,1.81,6.753l13.773,13.774c1.329,1.329,3.115,2.049,4.945,2.049c0.604,0,1.212-0.078,1.81-0.238
		l18.815-5.042c2.413-0.647,4.298-2.531,4.945-4.945l5.041-18.814c0.647-2.412-0.044-4.988-1.81-6.754L69.393,213.835z
		 M67.471,245.659l-11.016,2.952l-8.063-8.064l2.952-11.016l11.015-2.952l8.064,8.064L67.471,245.659z"/>
	<path d="M291.505,41.13c-1.302-3.05-4.035-5.255-7.291-5.884c-3.259-0.628-6.613,0.4-8.959,2.744l-33.972,33.972l-16.245-16.245
		l33.972-33.972c2.345-2.346,3.373-5.703,2.744-8.959s-2.834-5.988-5.884-7.291c-25.573-10.922-54.794-5.277-74.448,14.376
		c-14.363,14.363-21.449,34.391-19.49,54.453L58.067,178.19c-15.228,0.346-29.85,6.543-40.687,17.378
		c-23.173,23.173-23.173,60.879,0,84.053c11.587,11.587,26.806,17.38,42.026,17.38c15.219,0,30.44-5.793,42.026-17.381
		c10.836-10.837,17.033-25.457,17.379-40.686l103.865-103.866c20.06,1.957,40.09-5.127,54.453-19.49
		C296.783,95.924,302.426,66.702,291.505,41.13z M263.003,101.451c-11.017,11.017-26.771,15.959-42.133,13.217
		c-3.219-0.575-6.508,0.461-8.817,2.77L101.699,227.793c-2.009,2.009-3.067,4.779-2.91,7.616
		c0.619,11.201-3.565,22.168-11.483,30.086c-15.383,15.385-40.416,15.385-55.799,0c-15.384-15.384-15.384-40.415-0.001-55.799
		c7.404-7.403,17.471-11.543,27.903-11.543c0.726,0,1.453,0.02,2.182,0.06c2.837,0.164,5.606-0.9,7.617-2.91L179.563,84.948
		c2.309-2.31,3.344-5.602,2.77-8.817c-2.74-15.366,2.201-31.117,13.217-42.133c9.953-9.954,23.388-14.809,36.85-13.896
		l-28.551,28.551c-3.901,3.901-3.901,10.226,0,14.127l30.371,30.371c3.902,3.9,10.225,3.9,14.127,0l28.551-28.551
		C277.811,78.063,272.957,91.499,263.003,101.451z"/>
</g>
<g>
</g>
<g>
</g>
<g>
</g>
<g>
</g>
<g>
</g>
<g>
</g>
<g>
</g>
<g>
</g>
<g>
</g>
<g>
</g>
<g>
</g>
<g>
</g>
<g>
</g>
<g>
</g>
<g>
</g>
</svg>
